# xmcd CD database file
#
# Track frame offsets:
#	150
#	16755
#	32730
#	49612
#	65525
#	83075
#	100192
#	116812
#	132050
#	150812
#	167020
#	183800
#
# Disc length: 2726 seconds
#
# Revision: 1
# Processed by: cddbd v1.5.2PL0 Copyright (c) Steve Scherf et al.
# Submitted via: CDex 1.51
#
DISCID=840aa40c
DTITLE=松田聖子 - Seiko index
DYEAR=1984
DGENRE=J-pop
TTITLE0=青い珊瑚礁
TTITLE1=夏の扉
TTITLE2=ＳＱＵＡＬＬ
TTITLE3=白いパラソル
TTITLE4=いちご畑でつかまえて
TTITLE5=裸足の季節
TTITLE6=赤いスイートピー
TTITLE7=チェリーブラッサム
TTITLE8=風は秋色
TTITLE9=制服
TTITLE10=冬の妖精
TTITLE11=風立ちぬ
EXTD=YEAR: 1984
EXTT0=
EXTT1=
EXTT2=
EXTT3=
EXTT4=
EXTT5=
EXTT6=
EXTT7=
EXTT8=
EXTT9=
EXTT10=
EXTT11=
PLAYORDER=
